<?xml version="1.0" encoding="utf-8"?>
<!-- Generator: Adobe Illustrator 17.1.0, SVG Export Plug-In . SVG Version: 6.00 Build 0)  -->
<!DOCTYPE svg PUBLIC "-//W3C//DTD SVG 1.1//EN" "http://www.w3.org/Graphics/SVG/1.1/DTD/svg11.dtd">
<svg version="1.1" id="Layer_1" xmlns="http://www.w3.org/2000/svg" xmlns:xlink="http://www.w3.org/1999/xlink" x="0px" y="0px"
	 viewBox="0 0 328.892 209.507" enable-background="new 0 0 328.892 209.507" xml:space="preserve">
<g>
	<path fill="#FFFFFF" d="M207.256,100.787c-3.667,0.207-6.56,0.539-9.447,0.501c-9.827-0.127-19.658-0.235-29.475-0.665
		c-3.856-0.169-6.837,0.77-9.126,3.9c-0.783,1.07-1.946,1.884-2.628,3.003c-5.569,9.141-14.211,9.977-23.592,8.823
		c-5.745-0.706-7.464-4.245-5.114-9.599c2.054-4.679,4.545-9.426,5.233-14.367c0.651-4.673-0.474-9.701-1.415-14.455
		c-0.745-3.765-2.393-7.351-3.745-11.327c-4.57,3.894-11.452-3.074-13.82,4.82c-2.329-0.879-4.139-1.562-5.176-1.952
		c-2.304,1.802-4.014,4.218-5.906,4.371c-3.006,0.242-8.479-6.642-9.055-10.455c-0.272-1.798-0.21-3.657-0.189-5.487
		c0.05-4.329-0.339-8.254-2.913-12.251c-4.014-6.232-1.574-10.44,5.707-11.772c4.078-0.746,8.208-1.453,12.129-2.741
		c4.209-1.382,7.736-3.678,8.439-8.848c0.187-1.374,2.327-3.651,3.348-3.536c4.01,0.451,4.275-2.349,5.048-4.82
		c1.222-3.904,2.357-7.836,3.946-13.151c2.158,2.931,3.711,5.04,5.656,7.681c2.029-3.11,3.449-5.286,5.518-8.458
		c2.113,7.988,4.005,15.068,5.855,22.158c3.201,12.266,9.133,17.942,21.857,18.619c15.445,0.822,30.945,0.773,46.421,0.759
		c5.892-0.005,8.606-4.576,10.306-9.463c0.968-2.782,0.934-5.901,1.765-8.747c0.454-1.556,1.534-3.7,2.763-4.045
		c1.255-0.352,4.128,0.883,4.405,1.925c1.463,5.504,4.26,11.644,3.014,16.678c-2.854,11.526-0.17,22.081,1.742,33.146
		c2.677,15.492,0.842,30.655-8.687,43.863c-1.63,2.259-4.859,4.25-7.595,4.64c-5.556,0.792-11.29,0.651-16.931,0.427
		c-4.774-0.19-6.156-2.351-4.41-6.985C202.631,109.136,204.829,105.579,207.256,100.787z"/>
	<g>
		<path fill="#FFFFFF" d="M24.96,176.291c-0.257-0.991-0.608-1.903-1.056-2.736c-0.449-0.831-1.024-1.552-1.728-2.16
			c-0.704-0.607-1.528-1.079-2.472-1.416c-0.944-0.336-2.04-0.504-3.288-0.504c-1.824,0-3.401,0.368-4.728,1.104
			c-1.329,0.736-2.409,1.721-3.24,2.952c-0.833,1.232-1.448,2.632-1.848,4.2c-0.4,1.567-0.6,3.168-0.6,4.8s0.199,3.232,0.6,4.8
			c0.4,1.568,1.016,2.969,1.848,4.2c0.832,1.232,1.912,2.216,3.24,2.952c1.327,0.736,2.904,1.104,4.728,1.104
			c1.344,0,2.527-0.231,3.552-0.696c1.024-0.463,1.903-1.104,2.64-1.92c0.736-0.815,1.312-1.768,1.728-2.855
			c0.416-1.088,0.688-2.256,0.816-3.504h5.856c-0.128,2.048-0.568,3.92-1.32,5.615c-0.752,1.697-1.769,3.161-3.048,4.393
			c-1.28,1.232-2.784,2.184-4.512,2.855c-1.728,0.673-3.632,1.009-5.712,1.009c-2.561,0-4.856-0.473-6.888-1.416
			c-2.033-0.944-3.752-2.232-5.16-3.864c-1.408-1.632-2.488-3.535-3.24-5.712C0.376,187.315,0,184.995,0,182.531
			c0-2.432,0.375-4.735,1.128-6.912c0.751-2.176,1.832-4.08,3.24-5.712c1.408-1.632,3.127-2.929,5.16-3.889
			c2.032-0.96,4.328-1.439,6.888-1.439c1.92,0,3.727,0.264,5.424,0.792c1.696,0.528,3.192,1.296,4.488,2.304
			c1.296,1.008,2.344,2.232,3.144,3.672c0.8,1.44,1.296,3.089,1.488,4.944H24.96z"/>
		<path fill="#FFFFFF" d="M56.495,194.147c0,0.672,0.088,1.151,0.264,1.439c0.175,0.288,0.52,0.432,1.032,0.432
			c0.16,0,0.352,0,0.576,0c0.223,0,0.48-0.031,0.768-0.096v3.792c-0.192,0.063-0.44,0.136-0.744,0.216
			c-0.305,0.08-0.617,0.151-0.936,0.217c-0.32,0.063-0.641,0.111-0.96,0.144c-0.32,0.031-0.593,0.048-0.816,0.048
			c-1.121,0-2.048-0.225-2.784-0.672c-0.736-0.447-1.216-1.231-1.44-2.352c-1.088,1.056-2.424,1.823-4.008,2.304
			c-1.584,0.479-3.113,0.72-4.584,0.72c-1.121,0-2.192-0.152-3.216-0.456c-1.024-0.304-1.928-0.751-2.712-1.344
			c-0.785-0.592-1.409-1.344-1.872-2.256c-0.464-0.912-0.696-1.976-0.696-3.192c0-1.536,0.28-2.784,0.84-3.744
			c0.56-0.96,1.296-1.711,2.208-2.256c0.912-0.544,1.936-0.936,3.072-1.176c1.136-0.24,2.28-0.424,3.432-0.552
			c0.992-0.192,1.936-0.328,2.832-0.408c0.896-0.079,1.688-0.216,2.376-0.408c0.688-0.191,1.231-0.487,1.632-0.888
			c0.399-0.4,0.6-1,0.6-1.8c0-0.704-0.168-1.28-0.504-1.729c-0.336-0.447-0.752-0.792-1.248-1.032
			c-0.497-0.239-1.048-0.399-1.656-0.479c-0.608-0.08-1.185-0.12-1.728-0.12c-1.536,0-2.801,0.32-3.792,0.96
			c-0.992,0.641-1.553,1.632-1.68,2.976h-5.472c0.096-1.6,0.48-2.928,1.152-3.983c0.672-1.057,1.528-1.903,2.568-2.544
			c1.04-0.64,2.215-1.088,3.528-1.344c1.312-0.256,2.656-0.385,4.032-0.385c1.216,0,2.416,0.129,3.6,0.385
			c1.184,0.256,2.248,0.672,3.192,1.247c0.943,0.576,1.704,1.32,2.28,2.232c0.576,0.912,0.864,2.024,0.864,3.336V194.147z
			 M51.023,187.235c-0.833,0.544-1.856,0.872-3.072,0.983c-1.217,0.112-2.432,0.28-3.648,0.504c-0.576,0.097-1.136,0.232-1.68,0.408
			c-0.544,0.177-1.024,0.416-1.44,0.72c-0.417,0.305-0.744,0.705-0.984,1.2c-0.24,0.497-0.36,1.097-0.36,1.8
			c0,0.608,0.176,1.121,0.528,1.536c0.352,0.417,0.775,0.744,1.272,0.984c0.496,0.24,1.04,0.408,1.632,0.504
			c0.592,0.096,1.128,0.144,1.608,0.144c0.607,0,1.264-0.079,1.968-0.239c0.704-0.16,1.368-0.433,1.992-0.816
			s1.144-0.871,1.56-1.464c0.416-0.592,0.624-1.32,0.624-2.184V187.235z"/>
		<path fill="#FFFFFF" d="M62.399,174.85h5.136v4.801h0.096c0.16-0.673,0.472-1.328,0.936-1.969c0.464-0.64,1.024-1.224,1.68-1.752
			c0.655-0.527,1.384-0.951,2.184-1.271c0.799-0.319,1.615-0.48,2.448-0.48c0.64,0,1.08,0.017,1.32,0.048
			c0.24,0.032,0.487,0.064,0.744,0.097v5.279c-0.384-0.063-0.776-0.119-1.176-0.168c-0.4-0.048-0.792-0.071-1.176-0.071
			c-0.928,0-1.8,0.185-2.616,0.552c-0.816,0.368-1.528,0.912-2.136,1.632s-1.088,1.608-1.44,2.664
			c-0.353,1.056-0.528,2.272-0.528,3.648v11.808h-5.472V174.85z"/>
		<path fill="#FFFFFF" d="M80.158,174.85h5.184v3.648l0.096,0.096c0.832-1.375,1.92-2.455,3.264-3.239
			c1.344-0.784,2.832-1.177,4.464-1.177c2.719,0,4.864,0.704,6.432,2.112s2.352,3.521,2.352,6.336v17.04h-5.472v-15.6
			c-0.064-1.952-0.48-3.368-1.248-4.248s-1.968-1.32-3.6-1.32c-0.929,0-1.76,0.168-2.496,0.504c-0.736,0.336-1.36,0.801-1.872,1.392
			c-0.512,0.593-0.912,1.289-1.2,2.089c-0.288,0.8-0.432,1.648-0.432,2.544v14.64h-5.472V174.85z"/>
		<path fill="#FFFFFF" d="M111.981,188.675c0,0.96,0.136,1.889,0.408,2.784c0.271,0.896,0.679,1.68,1.224,2.352
			c0.543,0.673,1.231,1.209,2.064,1.608c0.832,0.4,1.824,0.6,2.976,0.6c1.6,0,2.887-0.343,3.864-1.031
			c0.976-0.688,1.704-1.72,2.184-3.097h5.184c-0.288,1.345-0.785,2.544-1.488,3.601c-0.704,1.056-1.552,1.943-2.544,2.664
			c-0.992,0.72-2.104,1.265-3.336,1.632c-1.232,0.367-2.52,0.552-3.864,0.552c-1.953,0-3.681-0.32-5.184-0.96
			c-1.504-0.64-2.777-1.536-3.816-2.688c-1.041-1.152-1.824-2.528-2.352-4.128c-0.528-1.601-0.792-3.36-0.792-5.28
			c0-1.76,0.28-3.433,0.84-5.017c0.56-1.584,1.36-2.976,2.4-4.176c1.04-1.2,2.296-2.151,3.768-2.855
			c1.472-0.704,3.136-1.057,4.992-1.057c1.951,0,3.703,0.408,5.256,1.225c1.552,0.815,2.839,1.896,3.864,3.239
			c1.024,1.345,1.768,2.889,2.232,4.633c0.463,1.744,0.583,3.544,0.36,5.399H111.981z M124.749,185.075
			c-0.064-0.864-0.248-1.696-0.552-2.496c-0.305-0.8-0.72-1.496-1.248-2.088c-0.528-0.592-1.168-1.072-1.92-1.44
			c-0.752-0.367-1.592-0.552-2.52-0.552c-0.96,0-1.833,0.168-2.616,0.504c-0.785,0.336-1.457,0.801-2.016,1.392
			c-0.56,0.593-1.008,1.289-1.344,2.089s-0.521,1.664-0.552,2.592H124.749z"/>
		<path fill="#FFFFFF" d="M157.342,198.371c0,3.744-1.049,6.535-3.144,8.376c-2.096,1.84-5.112,2.76-9.048,2.76
			c-1.248,0-2.504-0.128-3.768-0.384c-1.264-0.257-2.417-0.688-3.456-1.296c-1.041-0.608-1.913-1.408-2.616-2.4
			c-0.704-0.992-1.121-2.208-1.248-3.647h5.472c0.16,0.768,0.432,1.392,0.816,1.872c0.384,0.479,0.84,0.855,1.368,1.128
			c0.528,0.271,1.111,0.447,1.752,0.527c0.64,0.08,1.312,0.12,2.016,0.12c2.208,0,3.824-0.544,4.848-1.632
			c1.024-1.088,1.536-2.656,1.536-4.704v-3.792h-0.096c-0.768,1.376-1.816,2.448-3.144,3.216c-1.328,0.769-2.76,1.152-4.296,1.152
			c-1.984,0-3.672-0.344-5.064-1.032c-1.392-0.688-2.544-1.632-3.456-2.832s-1.576-2.583-1.992-4.151
			c-0.417-1.568-0.624-3.248-0.624-5.04c0-1.664,0.255-3.248,0.768-4.752c0.511-1.504,1.248-2.824,2.208-3.96
			c0.96-1.136,2.136-2.04,3.528-2.713c1.392-0.672,2.968-1.008,4.728-1.008c1.567,0,3.007,0.329,4.32,0.984
			c1.312,0.656,2.32,1.688,3.024,3.096h0.096v-3.408h5.472V198.371z M145.198,195.347c1.215,0,2.248-0.247,3.096-0.744
			c0.848-0.495,1.536-1.151,2.064-1.968c0.528-0.815,0.912-1.743,1.152-2.784c0.24-1.039,0.36-2.088,0.36-3.144
			s-0.128-2.08-0.384-3.072c-0.256-0.991-0.648-1.872-1.176-2.64c-0.528-0.769-1.216-1.376-2.064-1.824
			c-0.848-0.447-1.865-0.672-3.048-0.672c-1.217,0-2.24,0.257-3.072,0.768c-0.833,0.513-1.504,1.177-2.016,1.992
			c-0.512,0.816-0.88,1.745-1.104,2.784c-0.224,1.04-0.336,2.072-0.336,3.096c0,1.024,0.127,2.024,0.384,3
			c0.256,0.977,0.648,1.849,1.176,2.616c0.528,0.769,1.2,1.393,2.016,1.872C143.062,195.107,144.045,195.347,145.198,195.347z"/>
		<path fill="#FFFFFF" d="M163.004,165.394h5.472v5.185h-5.472V165.394z M163.004,174.85h5.472v24.816h-5.472V174.85z"/>
		<path fill="#FFFFFF" d="M178.701,188.675c0,0.96,0.136,1.889,0.408,2.784c0.271,0.896,0.679,1.68,1.224,2.352
			c0.544,0.673,1.231,1.209,2.064,1.608c0.831,0.4,1.823,0.6,2.976,0.6c1.6,0,2.888-0.343,3.863-1.031
			c0.977-0.688,1.704-1.72,2.185-3.097h5.184c-0.288,1.345-0.784,2.544-1.487,3.601c-0.705,1.056-1.553,1.943-2.544,2.664
			c-0.992,0.72-2.104,1.265-3.337,1.632c-1.231,0.367-2.52,0.552-3.863,0.552c-1.952,0-3.681-0.32-5.184-0.96
			c-1.505-0.64-2.777-1.536-3.816-2.688c-1.04-1.152-1.824-2.528-2.352-4.128c-0.528-1.601-0.792-3.36-0.792-5.28
			c0-1.76,0.279-3.433,0.84-5.017c0.56-1.584,1.359-2.976,2.399-4.176s2.296-2.151,3.769-2.855c1.472-0.704,3.136-1.057,4.992-1.057
			c1.951,0,3.703,0.408,5.255,1.225c1.552,0.815,2.84,1.896,3.864,3.239c1.024,1.345,1.768,2.889,2.232,4.633
			c0.463,1.744,0.583,3.544,0.359,5.399H178.701z M191.469,185.075c-0.064-0.864-0.248-1.696-0.552-2.496
			c-0.305-0.8-0.72-1.496-1.248-2.088s-1.168-1.072-1.92-1.44c-0.752-0.367-1.592-0.552-2.52-0.552c-0.96,0-1.833,0.168-2.616,0.504
			c-0.785,0.336-1.457,0.801-2.017,1.392c-0.56,0.593-1.008,1.289-1.344,2.089s-0.521,1.664-0.552,2.592H191.469z"/>
		<path fill="#FFFFFF" d="M209.084,165.394v13.152h13.872v-13.152h7.536v34.272h-7.536v-14.784h-13.872v14.784h-7.536v-34.272
			H209.084z"/>
		<path fill="#FFFFFF" d="M262.749,165.394v6.337h-18.097v7.344h16.608v5.855h-16.608v8.4h18.48v6.336h-26.017v-34.272H262.749z"/>
		<path fill="#FFFFFF" d="M286.7,165.394c1.536,0,2.92,0.249,4.152,0.744c1.231,0.497,2.287,1.177,3.168,2.04
			c0.88,0.864,1.552,1.865,2.016,3c0.464,1.137,0.696,2.36,0.696,3.672c0,2.017-0.425,3.761-1.272,5.232
			c-0.848,1.473-2.231,2.592-4.151,3.36v0.096c0.928,0.257,1.695,0.647,2.304,1.176c0.607,0.528,1.104,1.152,1.488,1.872
			c0.384,0.72,0.663,1.512,0.84,2.376c0.175,0.864,0.295,1.729,0.359,2.592c0.032,0.545,0.064,1.185,0.097,1.92
			c0.031,0.737,0.088,1.488,0.168,2.257c0.079,0.768,0.207,1.496,0.384,2.184c0.176,0.688,0.439,1.271,0.792,1.752h-7.536
			c-0.416-1.088-0.672-2.384-0.768-3.888c-0.097-1.504-0.24-2.944-0.433-4.32c-0.256-1.792-0.8-3.104-1.632-3.936
			s-2.192-1.248-4.08-1.248h-7.536v13.392h-7.536v-34.272H286.7z M284.012,180.899c1.729,0,3.024-0.385,3.889-1.152
			c0.864-0.769,1.296-2.016,1.296-3.744c0-1.663-0.432-2.872-1.296-3.624c-0.864-0.751-2.16-1.128-3.889-1.128h-8.256v9.648H284.012
			z"/>
		<path fill="#FFFFFF" d="M328.508,165.394v6.337h-18.097v7.344h16.608v5.855h-16.608v8.4h18.48v6.336h-26.017v-34.272H328.508z"/>
	</g>
</g>
</svg>
