<svg id="Layer_1" data-name="Layer 1" xmlns="http://www.w3.org/2000/svg" viewBox="0 0 130 182.06"><defs><style>.cls-1{fill:#fff;}</style></defs><title>share sheet</title><path class="cls-1" d="M941,347.77v81.59c0,1.59.4,1.64-1.08,1.64H851.08c-0.27,0-.08-3.79-0.08-4.46V347.91c0-12.88-20-13-20-.14v81.59c0,9.89,5.32,17.58,14.7,20.84,3.43,1.19,8,.8,11.62.8h66.23c12.74,0,26.51,2.15,34.74-10,3-4.37,2.72-9.88,2.72-14.9V347.91c0-12.88-20-13-20-.14h0Z" transform="translate(-831 -269.09)"/><path class="cls-1" d="M906,400a10,10,0,0,1-10,10h0a10,10,0,0,1-10-10V320a10,10,0,0,1,10-10h0a10,10,0,0,1,10,10v80Z" transform="translate(-831 -269.09)"/><path class="cls-1" d="M871.36,324c-5.5,0-7.75-3.9-5-8.66L891,272.66c2.75-4.76,7.25-4.76,10,0l24.64,42.68c2.75,4.76.5,8.66-5,8.66H871.36Z" transform="translate(-831 -269.09)"/></svg>